<svg width="46" height="9" viewBox="0 0 46 9" fill="none" xmlns="http://www.w3.org/2000/svg">
  <path fill-rule="evenodd" clip-rule="evenodd"
    d="M0.966734 4.18541C0.925003 3.35804 1.56189 2.65349 2.38927 2.61176C8.70259 2.29333 15.414 1.95499 22.125 1.61666C28.8361 1.27833 35.547 0.940012 41.8592 0.621641C42.4868 0.589988 42.9898 0.57836 43.3563 0.591965C43.5296 0.598395 43.737 0.612265 43.9325 0.651398C44.0227 0.669448 44.195 0.708688 44.3826 0.80005C44.5085 0.861394 45.0378 1.13311 45.2124 1.80384C45.4101 2.56346 44.9833 3.09529 44.8341 3.25283C44.6629 3.4336 44.4832 3.5375 44.4032 3.58151C44.2219 3.68129 44.0265 3.75229 43.8831 3.80024C43.5713 3.90454 43.1525 4.0138 42.6737 4.12565C40.7456 4.57605 37.1486 5.22614 32.9077 5.92282C27.9173 6.74263 25.3867 7.09237 22.1716 7.53671C20.5173 7.76534 18.6817 8.01903 16.2366 8.37469C15.4168 8.49393 14.6555 7.92602 14.5363 7.10622C14.417 6.28642 14.9849 5.52517 15.8047 5.40593C17.8618 5.10672 19.4823 4.88022 20.9188 4.68128C14.6619 4.99672 8.42803 5.31099 2.54039 5.60795C1.71301 5.64968 1.00846 5.01279 0.966734 4.18541Z"
    fill="#b5e8cd" />
</svg>
  