<?xml version="1.0" standalone="no"?>
<!DOCTYPE svg PUBLIC "-//W3C//DTD SVG 20010904//EN"
 "http://www.w3.org/TR/2001/REC-SVG-20010904/DTD/svg10.dtd">
<svg version="1.0" xmlns="http://www.w3.org/2000/svg"
 width="260.000000pt" height="260.000000pt" viewBox="0 0 260.000000 260.000000"
 preserveAspectRatio="xMidYMid meet">
<metadata>
Created by potrace 1.11, written by Peter Selinger 2001-2013
</metadata>
<g transform="translate(0.000000,260.000000) scale(0.100000,-0.100000)"
fill="#000000" stroke="none">
<path d="M0 1300 l0 -1300 1300 0 1300 0 0 1300 0 1300 -1300 0 -1300 0 0
-1300z m1175 550 c50 -47 40 -135 -19 -171 -40 -24 -73 -24 -113 1 -43 26 -56
54 -50 104 4 29 15 49 38 70 28 24 38 28 76 23 27 -3 54 -14 68 -27z m397 -9
c46 -52 30 -134 -32 -166 -37 -19 -63 -19 -100 0 -32 17 -60 61 -60 95 0 29
26 76 52 95 37 26 106 14 140 -24z m-422 -446 c32 -17 60 -61 60 -95 0 -54
-57 -110 -112 -110 -30 0 -84 33 -98 61 -7 12 -10 39 -7 61 11 81 85 120 157
83z m397 -5 c42 -25 56 -54 50 -102 -14 -103 -144 -132 -198 -44 -23 38 -24
67 -4 106 29 57 96 75 152 40z m-397 -465 c33 -17 60 -61 60 -97 0 -30 -33
-84 -61 -98 -37 -20 -100 -6 -131 30 -79 88 27 220 132 165z m397 -5 c43 -26
56 -54 50 -104 -4 -29 -15 -49 -38 -70 -28 -24 -38 -28 -76 -23 -27 3 -54 14
-68 27 -50 47 -40 135 19 171 40 24 73 24 113 -1z"/>
</g>
</svg>
