<svg width="260" height="260" viewBox="0 0 260 260" fill="none" xmlns="http://www.w3.org/2000/svg">
  <style>
    rect {
    fill: #E8EAED;
    }
    path {
    fill: #202124;
    }

    @media ( prefers-color-scheme: dark ) {
    rect {
    fill: #202124;
    }
    path {
    fill: #E8EAED;
    }
    }
  </style>
  <rect width="260" height="260" rx="20" />
  <path
    d="M138.251 66.3699H169.571V151.51C169.571 160.63 167.771 168.31 164.171 174.55C160.691 180.79 155.711 185.53 149.231 188.77C142.871 192.01 135.491 193.63 127.091 193.63C115.931 193.63 106.571 190.93 99.0107 185.53C91.5707 180.01 86.7107 171.97 84.4307 161.41L113.051 155.83C113.531 158.35 114.371 160.51 115.571 162.31C116.891 163.99 118.451 165.25 120.251 166.09C122.051 166.93 123.971 167.35 126.011 167.35C128.411 167.35 130.511 166.81 132.311 165.73C134.231 164.65 135.671 163.03 136.631 160.87C137.711 158.71 138.251 156.13 138.251 153.13V66.3699Z" />
</svg>