<?xml version="1.0" encoding="utf-8"?>
<!-- Generator: Adobe Illustrator 16.0.0, SVG Export Plug-In . SVG Version: 6.00 Build 0)  -->
<!DOCTYPE svg PUBLIC "-//W3C//DTD SVG 1.1 Tiny//EN" "http://www.w3.org/Graphics/SVG/1.1/DTD/svg11-tiny.dtd">
<svg version="1.1" baseProfile="tiny" id="Layer_1" xmlns="http://www.w3.org/2000/svg" xmlns:xlink="http://www.w3.org/1999/xlink"
	 x="0px" y="0px" width="30px" height="30px" viewBox="0 0 30 30" xml:space="preserve">
<g>
	<path fill-rule="evenodd" fill="#EDEDED" d="M14.999,0C6.716,0,0,6.887,0,15.381c0,6.795,4.296,12.559,10.26,14.594
		c0.749,0.139,1.022-0.334,1.022-0.742c0-0.365-0.013-1.334-0.02-2.615c-4.173,0.928-5.055-2.063-5.055-2.063
		c-0.681-1.775-1.665-2.25-1.665-2.25c-1.361-0.953,0.104-0.936,0.104-0.936c1.506,0.109,2.298,1.587,2.298,1.587
		c1.339,2.35,3.512,1.671,4.365,1.278c0.136-0.995,0.523-1.672,0.953-2.057c-3.33-0.391-6.832-1.707-6.832-7.601
		c0-1.681,0.583-3.052,1.543-4.128C6.819,10.061,6.305,8.497,7.121,6.38c0,0,1.259-0.415,4.124,1.577
		C12.442,7.615,13.725,7.443,15,7.439c1.274,0.004,2.558,0.176,3.757,0.518c2.864-1.992,4.121-1.577,4.121-1.577
		c0.817,2.117,0.303,3.681,0.149,4.069c0.961,1.076,1.541,2.447,1.541,4.128c0,5.908-3.508,7.207-6.85,7.587
		c0.539,0.477,1.018,1.415,1.018,2.85c0,2.056-0.017,3.714-0.017,4.219c0,0.411,0.27,0.889,1.031,0.739
		C25.707,27.934,30,22.173,30,15.381C30,6.887,23.285,0,14.999,0z"/>
</g>
</svg>
