<?xml version="1.0" encoding="utf-8"?>
<!-- Generator: Adobe Illustrator 16.0.0, SVG Export Plug-In . SVG Version: 6.00 Build 0)  -->
<!DOCTYPE svg PUBLIC "-//W3C//DTD SVG 1.1 Tiny//EN" "http://www.w3.org/Graphics/SVG/1.1/DTD/svg11-tiny.dtd">
<svg version="1.1" baseProfile="tiny" id="Layer_1" xmlns="http://www.w3.org/2000/svg" xmlns:xlink="http://www.w3.org/1999/xlink"
	 x="0px" y="0px" width="30px" height="30px" viewBox="0 0 30 30" xml:space="preserve">
<path fill="#EDEDED" d="M15,0C6.717,0,0,6.716,0,15s6.717,15,15,15s15-6.716,15-15S23.283,0,15,0z M22.545,11.188
	c0.448,4.684-3.328,11.21-10.682,11.257c-2.006,0.014-3.885-0.553-5.488-1.514c0.044,0,2.774,0.189,5.307-1.67
	c-1.654-0.081-3.041-1.18-3.547-2.684c0.316,0.082,1.141,0.229,1.826,0.036c-1.712-0.367-3.013-1.844-3.11-3.642
	c0.464,0.202,0.973,0.318,1.509,0.326c-0.922-0.723-2.267-2.748-0.982-5.085c1.792,2.315,4.574,3.826,7.714,3.895
	c-0.013-0.034-0.081-0.634-0.081-0.778c0-1.858,1.438-3.775,3.775-3.775c1.105,0,2.099,0.476,2.789,1.233
	c1.059-0.197,2.144-0.81,2.368-0.946c-0.295,0.864-0.895,1.587-1.671,2.042c0.005,0.013,0.012,0.025,0.016,0.039
	c0.734-0.089,1.436-0.282,2.088-0.565C23.999,10.163,23.349,10.813,22.545,11.188z"/>
</svg>
